<svg id="visual" viewBox="0 0 900 600" width="900" height="600" xmlns="http://www.w3.org/2000/svg" xmlns:xlink="http://www.w3.org/1999/xlink" version="1.1"><rect x="0" y="0" width="900" height="600" fill="#140021"></rect><path d="M0 309L129 309L129 282L257 282L257 279L386 279L386 281L514 281L514 273L643 273L643 275L771 275L771 309L900 309L900 339L900 0L900 0L771 0L771 0L643 0L643 0L514 0L514 0L386 0L386 0L257 0L257 0L129 0L129 0L0 0Z" fill="#1227c1"></path><path d="M0 191L129 191L129 149L257 149L257 140L386 140L386 182L514 182L514 180L643 180L643 252L771 252L771 162L900 162L900 137L900 0L900 0L771 0L771 0L643 0L643 0L514 0L514 0L386 0L386 0L257 0L257 0L129 0L129 0L0 0Z" fill="#1662d9"></path><path d="M0 133L129 133L129 123L257 123L257 79L386 79L386 140L514 140L514 103L643 103L643 100L771 100L771 124L900 124L900 143L900 0L900 0L771 0L771 0L643 0L643 0L514 0L514 0L386 0L386 0L257 0L257 0L129 0L129 0L0 0Z" fill="#5893e3"></path></svg>