<svg id="visual" viewBox="0 0 900 450" width="900" height="450" xmlns="http://www.w3.org/2000/svg" xmlns:xlink="http://www.w3.org/1999/xlink" version="1.1"><path d="M0 96L12.5 94.5C25 93 50 90 75 81C100 72 125 57 150 52.5C175 48 200 54 225 63.7C250 73.3 275 86.7 300 80.7C325 74.7 350 49.3 375 47.8C400 46.3 425 68.7 450 67.2C475 65.7 500 40.3 525 37.3C550 34.3 575 53.7 600 52.2C625 50.7 650 28.3 675 26.8C700 25.3 725 44.7 750 58.8C775 73 800 82 825 83.5C850 85 875 79 887.5 76L900 73L900 0L887.5 0C875 0 850 0 825 0C800 0 775 0 750 0C725 0 700 0 675 0C650 0 625 0 600 0C575 0 550 0 525 0C500 0 475 0 450 0C425 0 400 0 375 0C350 0 325 0 300 0C275 0 250 0 225 0C200 0 175 0 150 0C125 0 100 0 75 0C50 0 25 0 12.5 0L0 0Z" fill="#30753c"></path><path d="M0 100L12.5 106.8C25 113.7 50 127.3 75 131.2C100 135 125 129 150 121.5C175 114 200 105 225 102.7C250 100.3 275 104.7 300 100.8C325 97 350 85 375 89.5C400 94 425 115 450 109C475 103 500 70 525 64.8C550 59.7 575 82.3 600 80.2C625 78 650 51 675 54C700 57 725 90 750 109.5C775 129 800 135 825 128.2C850 121.3 875 101.7 887.5 91.8L900 82L900 71L887.5 74C875 77 850 83 825 81.5C800 80 775 71 750 56.8C725 42.7 700 23.3 675 24.8C650 26.3 625 48.7 600 50.2C575 51.7 550 32.3 525 35.3C500 38.3 475 63.7 450 65.2C425 66.7 400 44.3 375 45.8C350 47.3 325 72.7 300 78.7C275 84.7 250 71.3 225 61.7C200 52 175 46 150 50.5C125 55 100 70 75 79C50 88 25 91 12.5 92.5L0 94Z" fill="#256330"></path><path d="M0 231L12.5 235.5C25 240 50 249 75 242.2C100 235.3 125 212.7 150 199.8C175 187 200 184 225 172.8C250 161.7 275 142.3 300 152.8C325 163.3 350 203.7 375 207.3C400 211 425 178 450 166.8C475 155.7 500 166.3 525 177.7C550 189 575 201 600 201C625 201 650 189 675 174.7C700 160.3 725 143.7 750 157.2C775 170.7 800 214.3 825 208.3C850 202.3 875 146.7 887.5 118.8L900 91L900 80L887.5 89.8C875 99.7 850 119.3 825 126.2C800 133 775 127 750 107.5C725 88 700 55 675 52C650 49 625 76 600 78.2C575 80.3 550 57.7 525 62.8C500 68 475 101 450 107C425 113 400 92 375 87.5C350 83 325 95 300 98.8C275 102.7 250 98.3 225 100.7C200 103 175 112 150 119.5C125 127 100 133 75 129.2C50 125.3 25 111.7 12.5 104.8L0 98Z" fill="#1a5224"></path><path d="M0 402L12.5 396C25 390 50 378 75 375C100 372 125 378 150 363C175 348 200 312 225 305.2C250 298.3 275 320.7 300 344.7C325 368.7 350 394.3 375 382.3C400 370.3 425 320.7 450 292.2C475 263.7 500 256.3 525 263.8C550 271.3 575 293.7 600 312.3C625 331 650 346 675 355C700 364 725 367 750 351.3C775 335.7 800 301.3 825 293.8C850 286.3 875 305.7 887.5 315.3L900 325L900 89L887.5 116.8C875 144.7 850 200.3 825 206.3C800 212.3 775 168.7 750 155.2C725 141.7 700 158.3 675 172.7C650 187 625 199 600 199C575 199 550 187 525 175.7C500 164.3 475 153.7 450 164.8C425 176 400 209 375 205.3C350 201.7 325 161.3 300 150.8C275 140.3 250 159.7 225 170.8C200 182 175 185 150 197.8C125 210.7 100 233.3 75 240.2C50 247 25 238 12.5 233.5L0 229Z" fill="#13451d"></path><path d="M0 447L12.5 443.2C25 439.3 50 431.7 75 424.2C100 416.7 125 409.3 150 402.7C175 396 200 390 225 385.5C250 381 275 378 300 388.5C325 399 350 423 375 430.5C400 438 425 429 450 417.7C475 406.3 500 392.7 525 384.3C550 376 575 373 600 380.5C625 388 650 406 675 412C700 418 725 412 750 407.5C775 403 800 400 825 397.8C850 395.7 875 394.3 887.5 393.7L900 393L900 323L887.5 313.3C875 303.7 850 284.3 825 291.8C800 299.3 775 333.7 750 349.3C725 365 700 362 675 353C650 344 625 329 600 310.3C575 291.7 550 269.3 525 261.8C500 254.3 475 261.7 450 290.2C425 318.7 400 368.3 375 380.3C350 392.3 325 366.7 300 342.7C275 318.7 250 296.3 225 303.2C200 310 175 346 150 361C125 376 100 370 75 373C50 376 25 388 12.5 394L0 400Z" fill="#123e1b"></path><path d="M0 451L12.5 451C25 451 50 451 75 451C100 451 125 451 150 451C175 451 200 451 225 451C250 451 275 451 300 451C325 451 350 451 375 451C400 451 425 451 450 451C475 451 500 451 525 451C550 451 575 451 600 451C625 451 650 451 675 451C700 451 725 451 750 451C775 451 800 451 825 451C850 451 875 451 887.5 451L900 451L900 391L887.5 391.7C875 392.3 850 393.7 825 395.8C800 398 775 401 750 405.5C725 410 700 416 675 410C650 404 625 386 600 378.5C575 371 550 374 525 382.3C500 390.7 475 404.3 450 415.7C425 427 400 436 375 428.5C350 421 325 397 300 386.5C275 376 250 379 225 383.5C200 388 175 394 150 400.7C125 407.3 100 414.7 75 422.2C50 429.7 25 437.3 12.5 441.2L0 445Z" fill="#113619"></path></svg>