<svg id="visual" viewBox="0 0 900 600" width="900" height="600" xmlns="http://www.w3.org/2000/svg" xmlns:xlink="http://www.w3.org/1999/xlink" version="1.1"><path d="M0 79L10 74C20 69 40 59 60 53C80 47 100 45 120 50C140 55 160 67 180 71C200 75 220 71 240 72C260 73 280 79 300 78C320 77 340 69 360 65C380 61 400 61 420 62C440 63 460 65 480 64C500 63 520 59 540 57C560 55 580 55 600 51C620 47 640 39 660 37C680 35 700 39 720 44C740 49 760 55 780 56C800 57 820 53 840 57C860 61 880 73 890 79L900 85L900 0L890 0C880 0 860 0 840 0C820 0 800 0 780 0C760 0 740 0 720 0C700 0 680 0 660 0C640 0 620 0 600 0C580 0 560 0 540 0C520 0 500 0 480 0C460 0 440 0 420 0C400 0 380 0 360 0C340 0 320 0 300 0C280 0 260 0 240 0C220 0 200 0 180 0C160 0 140 0 120 0C100 0 80 0 60 0C40 0 20 0 10 0L0 0Z" fill="#154c26"></path><path d="M0 187L10 182C20 177 40 167 60 159C80 151 100 145 120 140C140 135 160 131 180 135C200 139 220 151 240 156C260 161 280 159 300 163C320 167 340 177 360 169C380 161 400 135 420 141C440 147 460 185 480 186C500 187 520 151 540 135C560 119 580 123 600 123C620 123 640 119 660 123C680 127 700 139 720 149C740 159 760 167 780 164C800 161 820 147 840 146C860 145 880 157 890 163L900 169L900 83L890 77C880 71 860 59 840 55C820 51 800 55 780 54C760 53 740 47 720 42C700 37 680 33 660 35C640 37 620 45 600 49C580 53 560 53 540 55C520 57 500 61 480 62C460 63 440 61 420 60C400 59 380 59 360 63C340 67 320 75 300 76C280 77 260 71 240 70C220 69 200 73 180 69C160 65 140 53 120 48C100 43 80 45 60 51C40 57 20 67 10 72L0 77Z" fill="#1c6831"></path><path d="M0 421L10 406C20 391 40 361 60 360C80 359 100 387 120 378C140 369 160 323 180 321C200 319 220 361 240 369C260 377 280 351 300 346C320 341 340 357 360 339C380 321 400 269 420 272C440 275 460 333 480 344C500 355 520 319 540 300C560 281 580 279 600 268C620 257 640 237 660 246C680 255 700 293 720 320C740 347 760 363 780 371C800 379 820 379 840 360C860 341 880 303 890 284L900 265L900 167L890 161C880 155 860 143 840 144C820 145 800 159 780 162C760 165 740 157 720 147C700 137 680 125 660 121C640 117 620 121 600 121C580 121 560 117 540 133C520 149 500 185 480 184C460 183 440 145 420 139C400 133 380 159 360 167C340 175 320 165 300 161C280 157 260 159 240 154C220 149 200 137 180 133C160 129 140 133 120 138C100 143 80 149 60 157C40 165 20 175 10 180L0 185Z" fill="#428e55"></path><path d="M0 481L10 467C20 453 40 425 60 424C80 423 100 449 120 446C140 443 160 411 180 411C200 411 220 443 240 449C260 455 280 435 300 432C320 429 340 443 360 416C380 389 400 321 420 322C440 323 460 393 480 413C500 433 520 403 540 388C560 373 580 373 600 358C620 343 640 313 660 321C680 329 700 375 720 401C740 427 760 433 780 438C800 443 820 447 840 436C860 425 880 399 890 386L900 373L900 263L890 282C880 301 860 339 840 358C820 377 800 377 780 369C760 361 740 345 720 318C700 291 680 253 660 244C640 235 620 255 600 266C580 277 560 279 540 298C520 317 500 353 480 342C460 331 440 273 420 270C400 267 380 319 360 337C340 355 320 339 300 344C280 349 260 375 240 367C220 359 200 317 180 319C160 321 140 367 120 376C100 385 80 357 60 358C40 359 20 389 10 404L0 419Z" fill="#428e55"></path><path d="M0 517L10 502C20 487 40 457 60 456C80 455 100 483 120 486C140 489 160 467 180 469C200 471 220 497 240 497C260 497 280 471 300 468C320 465 340 485 360 468C380 451 400 397 420 395C440 393 460 443 480 460C500 477 520 461 540 450C560 439 580 433 600 418C620 403 640 379 660 390C680 401 700 447 720 475C740 503 760 513 780 511C800 509 820 495 840 477C860 459 880 437 890 426L900 415L900 371L890 384C880 397 860 423 840 434C820 445 800 441 780 436C760 431 740 425 720 399C700 373 680 327 660 319C640 311 620 341 600 356C580 371 560 371 540 386C520 401 500 431 480 411C460 391 440 321 420 320C400 319 380 387 360 414C340 441 320 427 300 430C280 433 260 453 240 447C220 441 200 409 180 409C160 409 140 441 120 444C100 447 80 421 60 422C40 423 20 451 10 465L0 479Z" fill="#1c6831"></path><path d="M0 601L10 601C20 601 40 601 60 601C80 601 100 601 120 601C140 601 160 601 180 601C200 601 220 601 240 601C260 601 280 601 300 601C320 601 340 601 360 601C380 601 400 601 420 601C440 601 460 601 480 601C500 601 520 601 540 601C560 601 580 601 600 601C620 601 640 601 660 601C680 601 700 601 720 601C740 601 760 601 780 601C800 601 820 601 840 601C860 601 880 601 890 601L900 601L900 413L890 424C880 435 860 457 840 475C820 493 800 507 780 509C760 511 740 501 720 473C700 445 680 399 660 388C640 377 620 401 600 416C580 431 560 437 540 448C520 459 500 475 480 458C460 441 440 391 420 393C400 395 380 449 360 466C340 483 320 463 300 466C280 469 260 495 240 495C220 495 200 469 180 467C160 465 140 487 120 484C100 481 80 453 60 454C40 455 20 485 10 500L0 515Z" fill="#154c26"></path></svg>